<svg xmlns="http://www.w3.org/2000/svg" version="1.1" xmlns:xlink="http://www.w3.org/1999/xlink" xmlns:svgjs="http://svgjs.dev/svgjs" width="1500" height="507" viewBox="0 0 1500 507"><g transform="matrix(1,0,0,1,-0.9090909090911055,-1.7315930524776206)"><svg viewBox="0 0 396 134" data-background-color="#f9f6ed" preserveAspectRatio="xMidYMid meet" height="507" width="1500" xmlns="http://www.w3.org/2000/svg" xmlns:xlink="http://www.w3.org/1999/xlink"><g id="tight-bounds" transform="matrix(1,0,0,1,0.24000000000003752,0.4576597022327462)"><svg viewBox="0 0 395.5199999999999 133.08468059553448" height="133.08468059553448" width="395.5199999999999"><g><svg viewBox="0 0 669.9452170030488 225.42335462519418" height="133.08468059553448" width="395.5199999999999"><g transform="matrix(1,0,0,1,274.42521700304883,60.81963579010574)"><svg viewBox="0 0 395.52 103.7840830449827" height="103.7840830449827" width="395.52"><g id="textblocktransform"><svg viewBox="0 0 395.52 103.7840830449827" height="103.7840830449827" width="395.52" id="textblock"><g><svg viewBox="0 0 395.52 103.7840830449827" height="103.7840830449827" width="395.52"><g transform="matrix(1,0,0,1,0,0)"><svg width="395.52" viewBox="4 -34.85 173.39 45.5" height="103.7840830449827" data-palette-color="#ea5141"><path d="M24.35-33.85L30.45-34.6 29.8-13 30.35-1.1 24.45 0.15 9.55-23.95 9.55-13 10.25 0 4 0 4.6-12.15 4-34.35 10-34.65 24.85-10.2 24.35-33.85ZM46.35-5.1L46.35-5.1Q47.8-5.1 49.4-5.85 51-6.6 51.9-7.35L51.9-7.35 52.8-8.1 55.1-5.3Q54.6-4.45 53.55-3.35 52.5-2.25 51.42-1.48 50.35-0.7 48.57-0.08 46.8 0.55 44.9 0.55L44.9 0.55Q40.85 0.55 38.3-2.53 35.75-5.6 35.75-10.45L35.75-10.45Q35.75-16.55 39.3-21.15 42.85-25.75 47.6-25.75L47.6-25.75Q51.25-25.75 53.27-23.7 55.3-21.65 55.3-17.95L55.3-17.95Q55.3-15.75 54.55-12.95L54.55-12.95 53.55-11.9 41.05-10.75Q41.9-5.1 46.35-5.1ZM46.35-20.6L46.35-20.6Q44.15-20.6 42.65-18.82 41.15-17.05 40.9-14.3L40.9-14.3 49.4-15.35Q49.55-16.5 49.55-17.25L49.55-17.25Q49.55-20.6 46.35-20.6ZM73-25.25L73-25.25Q76.2-25.25 78.37-22.45 80.55-19.65 80.55-14.9L80.55-14.9Q80.55-8.25 77.12-4.13 73.7 0 68.59 0L68.59 0Q67.55 0 66.25-0.15L66.25-0.15 66.5 9.4 59.65 10.65 60.3-12.15 60.35-12.15Q60.15-18.85 59.25-24.15L59.25-24.15 65.3-25.45Q65.59-22.8 65.8-20.2L65.8-20.2Q65.9-20.45 66.82-21.58 67.75-22.7 69.55-23.98 71.34-25.25 73-25.25ZM71.05-18.75L71.05-18.75Q68.4-18.75 65.9-17.3L65.9-17.3 65.9-13 66.09-5.85Q68.8-5.4 70.2-5.4L70.2-5.4Q75-5.4 75-12.08 75-18.75 71.05-18.75ZM93.99-34.85L100.29-15.6 100.79-15.6 108.09-34.6 114.99-34.4 115.19-12.9 116.14 0 109.39 0 109.64-13 109.09-26.15 103.09-9.6 96.94-9.3 91.34-26.15 90.89-13 91.24 0 85.04 0 85.74-12.15 86.04-33.6 93.99-34.85ZM127.04 0Q124.09 0 122.22-1.88 120.34-3.75 120.34-6.93 120.34-10.1 123.24-12.43 126.14-14.75 130.29-14.75L130.29-14.75 133.69-14.75 133.69-15.6Q133.69-18.05 132.69-18.95 131.69-19.85 128.94-19.85L128.94-19.85Q127.79-19.85 126.22-19.38 124.64-18.9 122.69-17.9L122.69-17.9 121.24-21.85Q123.39-23.35 126.47-24.55 129.54-25.75 131.54-25.75L131.54-25.75Q139.39-25.75 139.39-18.15L139.39-18.15 139.39-8.35Q139.39-5.55 141.14-2.1L141.14-2.1 135.84 0.15Q134.59-2.25 133.99-4.15L133.99-4.15Q131.24 0 127.04 0L127.04 0ZM129.14-5.1L129.14-5.1Q131.14-5.1 133.69-7.15L133.69-7.15 133.69-10.5Q131.04-11.1 129.39-11.1L129.39-11.1Q126.24-11.1 126.24-8.3L126.24-8.3Q126.24-6.85 127.04-5.98 127.84-5.1 129.14-5.1ZM144.94-24.15L144.94-24.15 150.99-25.45Q151.44-21.6 151.59-18.15L151.59-18.15Q156.14-25.2 160.14-25.2L160.14-25.2 159.59-17.4Q156.69-17.4 155.01-16.88 153.34-16.35 151.59-14.8L151.59-14.8 151.59-13 152.14-1.25 145.44 0 146.04-12.15Q145.84-18.85 144.94-24.15ZM162.34-24.2L165.24-24.2 165.24-29.65 171.99-30.95 171.34-24.2 177.39-24.2 176.84-20.1 171.14-20.1 170.89-9.65Q170.89-7.3 171.34-6.53 171.79-5.75 172.99-5.75 174.19-5.75 176.19-6.3L176.19-6.3 176.49-2.75Q173.19 0 170.69 0 168.19 0 166.59-1.83 164.99-3.65 164.99-6.6L164.99-6.6 165.29-12.2 165.24-20.1 161.79-20.1 162.34-24.2Z" opacity="1" transform="matrix(1,0,0,1,0,0)" fill="#ea5141" class="wordmark-text-0" data-fill-palette-color="primary" id="text-0"></path></svg></g></svg></g></svg></g></svg></g><g><svg viewBox="0 0 225.42335462519418 225.42335462519418" height="225.42335462519418" width="225.42335462519418"><g><svg></svg></g><g id="icon-0"><svg viewBox="0 0 225.42335462519418 225.42335462519418" height="225.42335462519418" width="225.42335462519418"><g><path d="M0 112.712c0-62.249 50.463-112.712 112.712-112.712 62.249 0 112.712 50.463 112.711 112.712 0 62.249-50.463 112.712-112.711 112.711-62.249 0-112.712-50.463-112.712-112.711zM112.712 216.064c57.08 0 103.352-46.272 103.352-103.352 0-57.08-46.272-103.352-103.352-103.353-57.08 0-103.352 46.272-103.353 103.353 0 57.08 46.272 103.352 103.353 103.352z" data-fill-palette-color="accent" fill="#ea5141" stroke="transparent"></path></g><g transform="matrix(1,0,0,1,49.23683340203045,50.0124691819631)"><svg viewBox="0 0 126.94968782113328 125.39841626126798" height="125.39841626126798" width="126.94968782113328"><g><svg xmlns="http://www.w3.org/2000/svg" data-name="Layer 1" viewBox="3.9624404694400663 4.52 92.0751190611195 90.95" x="0" y="0" height="125.39841626126798" width="126.94968782113328" class="icon-dxe-0" data-fill-palette-color="accent" id="dxe-0"><path d="M26.29 58.6V81.7H73.71V58.6A2 2 0 0 1 77.71 58.6V83.7A2 2 0 0 1 75.71 85.7H24.29A2 2 0 0 1 22.29 83.7V58.6A2 2 0 0 1 26.29 58.6M89.41 81.7H87.48V59.36A2 2 0 0 0 83.48 59.36V83.7A2 2 0 0 0 85.48 85.7H89.41A2.89 2.89 0 0 1 89.41 91.47H10.59A2.89 2.89 0 0 1 10.59 85.7H14.52A2 2 0 0 0 16.52 83.7V59.36A2 2 0 1 0 12.52 59.36V81.7H10.59A6.89 6.89 0 0 0 10.59 95.47H89.41A6.89 6.89 0 0 0 89.41 81.7M81.85 52.6A13.83 13.83 0 0 1 71.2 47.55 13.82 13.82 0 0 1 60.56 52.6 13.66 13.66 0 0 1 50 47.67 13.66 13.66 0 0 1 39.44 52.6 13.82 13.82 0 0 1 28.8 47.54 13.82 13.82 0 0 1 18.15 52.6H17.21A12.63 12.63 0 0 1 7.13 46.35 13.43 13.43 0 0 1 6.38 33.94L17.47 9.29A8.09 8.09 0 0 1 24.84 4.52H75.16A8.09 8.09 0 0 1 82.53 9.29L93.61 33.94A13.43 13.43 0 0 1 92.86 46.35 12.63 12.63 0 0 1 82.78 52.57C82.48 52.59 82.17 52.6 81.85 52.6M81.85 48.6H82.52A8.68 8.68 0 0 0 89.44 44.31 9.43 9.43 0 0 0 90 35.58L78.88 10.93A4.08 4.08 0 0 0 75.16 8.52H24.84A4.08 4.08 0 0 0 21.12 10.93L10 35.58A9.43 9.43 0 0 0 10.53 44.29 8.68 8.68 0 0 0 17.45 48.58H18.12A9.81 9.81 0 0 0 27 43 2 2 0 0 1 30.62 43 9.81 9.81 0 0 0 39.45 48.62 9.71 9.71 0 0 0 48.22 43.14 2 2 0 0 1 51.81 43.14 9.71 9.71 0 0 0 60.58 48.62 9.81 9.81 0 0 0 69.4 43 2 2 0 0 1 73 43 9.81 9.81 0 0 0 81.85 48.6" fill="#ea5141" data-fill-palette-color="accent"></path></svg></g></svg></g></svg></g></svg></g></svg></g><defs></defs></svg><rect width="395.5199999999999" height="133.08468059553448" fill="none" stroke="none" visibility="hidden"></rect></g></svg></g></svg>